<svg xmlns="http://www.w3.org/2000/svg" viewBox="0 0 551.05 112.94"><defs><style>.cls-1{fill:#fff;}.cls-2{fill:#26326c;}.cls-3{fill:#18a5de;}.cls-4{fill:none;stroke:#fed700;stroke-linecap:square;stroke-miterlimit:10;stroke-width:0.5px;}.cls-5{fill:#fed700;}</style></defs><g id="Layer_2" data-name="Layer 2"><g id="Layer_8" data-name="Layer 8"><path class="cls-1" d="M77.27,87.32c-10.26,9.46-22.88,9.56-26,9.53-3.45,0-16.17-.58-26.38-10.38-11.45-11-15-29-9-41.36a25.55,25.55,0,0,1,2.89-4.6V21.28L8.51,18.55a4.12,4.12,0,0,0-.34,1,3.59,3.59,0,0,0,0,1.36,3.08,3.08,0,0,1,1,2.38,2.93,2.93,0,0,1-.85,1.87,12,12,0,0,1,.17,3.92C8.3,30.76,8.12,32.17,7,33.19a4.11,4.11,0,0,1-4.6.68,3.12,3.12,0,0,1-1.7-2.72c.17-1.34,1.8-1.53,2.72-3.4a5.42,5.42,0,0,0,.51-2.56A2.8,2.8,0,0,1,3.06,23a2.76,2.76,0,0,1,1-1.87c0-.49.1-1,.17-1.53s.21-1.3.34-1.88L1,16.34A1.63,1.63,0,0,1,.34,15a2,2,0,0,1,1-1.36C3.27,12.33,40,2.83,49.7.34a3.23,3.23,0,0,1,2.89,0l49,14.47a1.65,1.65,0,0,1,0,3.06L84.25,22.13V41a33.37,33.37,0,0,1,2.39,5.11C91,58.1,89.55,76,77.27,87.32Z"/><path class="cls-2" d="M34.78,25.31a35.07,35.07,0,0,0-11.31,8.35,34.23,34.23,0,0,0-3.68,5V21.52Z"/><path class="cls-3" d="M83.3,39.31A38.66,38.66,0,0,0,68.59,25.88l14.66-3.37c0,2.6,0,5.65,0,8.26S83.29,36.57,83.3,39.31Z"/><path class="cls-2" d="M7.14,24.54a22,22,0,0,1,0,4.17C6.86,31.63,6.2,32.26,6,32.46a3.09,3.09,0,0,1-2.24.64C3.05,33,2,32.6,1.9,31.92c-.08-.47.33-.73,1.17-1.92a13.8,13.8,0,0,0,1.18-1.93A8,8,0,0,0,5,24.76a1.89,1.89,0,0,1-.86-2,2,2,0,0,1,1.29-1.29,12.46,12.46,0,0,1,0-2A11.86,11.86,0,0,1,6,16.7l1.6.38c-.16.77-.3,1.59-.41,2.44-.09.66-.16,1.3-.22,1.92a2.21,2.21,0,0,1,.86,1.82A2,2,0,0,1,7.14,24.54Z"/><path class="cls-3" d="M100.13,17,81.84,21,66.45,24.31l-15,3.27a.7.7,0,0,1-.29,0q.08-6.47.07-13T51.12,1.39a.68.68,0,0,1,.22,0,.85.85,0,0,1,.22,0l48.57,14.28A.69.69,0,0,1,100.13,17Z"/><path class="cls-2" d="M51.12,1.39V27.62a.59.59,0,0,1-.22-.05L36.27,24,20.64,20.25,7.55,17.08,6,16.7l-3.42-.83a.69.69,0,0,1,0-1.28L51.05,1.41Z"/><path class="cls-4" d="M3,48.52c2.21,33.25,20.6,56.57,46.1,56.57"/><path class="cls-5" d="M48,105a6.59,6.59,0,0,0-2.14-2.78c-.43-.25-1.12-.25-1.59-.76a3.39,3.39,0,0,1-1-2.05l0-.17.17,0a3.35,3.35,0,0,1,3.83,1.54,5.58,5.58,0,0,1,1,4.2v.13c-.19,0-.15.09-.24-.08Z"/><path class="cls-5" d="M42.42,104.54a9.64,9.64,0,0,0-2.17-3.19c-.42-.34-1.1-.41-1.55-.95a3.94,3.94,0,0,1-1.06-2.14l0-.18.18,0a4.32,4.32,0,0,1,2.33.29,5.56,5.56,0,0,1,2.46,3.94,12.94,12.94,0,0,1,.07,2.32c-.19,0-.15.09-.24-.07Z"/><path class="cls-5" d="M35.58,102.68a11.81,11.81,0,0,0-2-3.82c-.42-.46-1.09-.61-1.54-1.21a5,5,0,0,1-1.15-2.43c4.24-.61,5.45,4.13,4.9,7.43l0,.13-.18,0-.05-.12Z"/><path class="cls-5" d="M28.32,98.78a16.05,16.05,0,0,0-1.66-4c-.37-.51-1-.75-1.37-1.38a5.23,5.23,0,0,1-.86-2.53c4.27-.18,4.8,4.73,4.14,7.9l0,.13h-.18l0-.12Z"/><path class="cls-5" d="M20.88,92.65a13.06,13.06,0,0,0-1-3.69c-.26-.49-.84-.81-1-1.46a4,4,0,0,1-.12-2.3l.05-.17.17,0c3.56.68,3.24,5,2.18,7.6l-.05.13-.17,0,0-.13Z"/><path class="cls-5" d="M15.51,85.93a13.36,13.36,0,0,0-.89-4.57c-1-1.51-1.73-2.68-1.31-4.76a4.67,4.67,0,0,1,2.38,1.65c1.43,2.22,1,5.38.07,7.71l0,.12-.18,0,0-.12Z"/><path class="cls-5" d="M10.06,77a13.23,13.23,0,0,0-.67-4.63c-.91-1.55-1.49-3-.84-4.92a4.73,4.73,0,0,1,2.18,1.89c1.15,2.34.69,5.43-.42,7.71l-.06.12-.18,0V77Z"/><path class="cls-5" d="M5.51,65a11.15,11.15,0,0,0,0-3.46c-.08-.54-.46-1-.35-1.62a3.77,3.77,0,0,1,1-2.06,2.86,2.86,0,0,1,1.39,3.74,7.09,7.09,0,0,1-1.78,3.51l-.09.1c-.15-.09-.16,0-.13-.21Z"/><path class="cls-5" d="M3.76,55.58a5.44,5.44,0,0,0,.78-2.64c0-.39-.34-.91-.12-1.42a2.76,2.76,0,0,1,1.25-1.46L5.81,50l.11.1c1.16,1.15,1.25,1.9.58,3.25a4.5,4.5,0,0,1-2.56,2.43c-.16.07-.11.07-.23,0l0-.13Z"/><path class="cls-5" d="M3.49,55.77a3.69,3.69,0,0,1-2.87-2C.37,53.26,0,52.89,0,52.4a3.57,3.57,0,0,1,.71-1.85,2.62,2.62,0,0,1,1.7,1.18c.33.47.12,1.07.13,1.5-.07,1,.61,1.66,1.16,2.44-.1.13,0,.15-.21.1Z"/><path class="cls-5" d="M5.15,65.16A5,5,0,0,1,2,62.94c-1-1.27-1.16-2.09-.4-3.7A3.08,3.08,0,0,1,3.5,60.48c.39.5.26,1.17.36,1.67a5.9,5.9,0,0,0,1.51,2.9c-.1.15,0,.16-.22.11Z"/><path class="cls-5" d="M9.73,77.28a6.7,6.7,0,0,1-4.36-2.11,4,4,0,0,1-1-4.73,4.49,4.49,0,0,1,2,1.72c.45.59.4,1.36.65,1.93a8,8,0,0,0,2.78,3l.1.08-.07.17-.13,0Z"/><path class="cls-5" d="M15.2,86.36a5.94,5.94,0,0,1-4.68-.5,3.57,3.57,0,0,1-2.22-4l0-.17h0l.17,0c2.09.52,2.41,1.27,3.26,2.59a6.77,6.77,0,0,0,3.45,1.83l.12,0v.19l-.12,0Z"/><path class="cls-5" d="M20.92,93a4.8,4.8,0,0,1-3.85.9,2.67,2.67,0,0,1-2.62-2.8v-.16a3.85,3.85,0,0,1,2.21.13c.54.16.76.7,1.14,1a5.24,5.24,0,0,0,3.05.73H21c0,.18.1.13-.06.23Z"/><path class="cls-5" d="M28.45,99.16a8.09,8.09,0,0,1-4.28,1.33,3.51,3.51,0,0,1-4-1.92.8.8,0,0,1-.08-.16,4.68,4.68,0,0,1,2.45-.55c.68,0,1.21.46,1.83.64a11.38,11.38,0,0,0,4,.42h.13l.06.17-.11.07Z"/><path class="cls-5" d="M35.79,102.79a5.56,5.56,0,0,1-4.13,2.09,4,4,0,0,1-4.27-1.62,3.8,3.8,0,0,1,2.45-.92,6,6,0,0,1,2,.54,5.87,5.87,0,0,0,3.95-.34c.11.16.15.1,0,.25Z"/><path class="cls-5" d="M42.55,104.72c-1.34,2.41-4.88,4.89-7.19,2.13l-.11-.12a3.94,3.94,0,0,1,2.08-1.18c.61-.18,1.15.15,1.66.13a9,9,0,0,0,3.4-1.15l.12,0c.11.14.15.08,0,.24Z"/><path class="cls-5" d="M48.35,105.3a4.16,4.16,0,0,1-2,3.34,3.25,3.25,0,0,1-1.81.7,3.87,3.87,0,0,1-2-.84,3,3,0,0,1,1.56-1.62c.54-.29,1.1,0,1.54-.1a4.45,4.45,0,0,0,2.62-1.68c.15.09.16,0,.13.2Z"/><path class="cls-4" d="M49,105.09a15.87,15.87,0,0,1,7.27,7.52"/><path class="cls-4" d="M99.23,48.52C97,81.77,78.64,105.09,53.13,105.09"/><path class="cls-5" d="M54,104.92a5.58,5.58,0,0,1,1.05-4.2,3.35,3.35,0,0,1,3.83-1.54l.17,0A3.4,3.4,0,0,1,58,101.43c-.47.51-1.16.51-1.58.76A6.53,6.53,0,0,0,54.26,105l-.07.12c-.18,0-.17,0-.18-.17Z"/><path class="cls-5" d="M59.57,104.48c-.29-3,1.19-7,4.88-6.42l.17,0a4,4,0,0,1-1.07,2.31c-.46.54-1.14.61-1.56.95a9.64,9.64,0,0,0-2.17,3.19l-.06.11-.18,0v-.13Z"/><path class="cls-5" d="M66.41,102.65c-.55-3.18.62-7.9,4.72-7.46h.16l0,0,0,.17a4.9,4.9,0,0,1-1.12,2.26c-.44.6-1.12.75-1.54,1.21a12.65,12.65,0,0,0-2,3.94c-.2,0-.18,0-.2-.15Z"/><path class="cls-5" d="M73.68,98.76c-.67-3.06-.15-7.93,3.94-7.91h.17l0,0,0,.17A5.06,5.06,0,0,1,77,93.39c-.36.63-1,.87-1.36,1.38a16.64,16.64,0,0,0-1.71,4.13c-.2,0-.18,0-.2-.14Z"/><path class="cls-5" d="M81.11,92.67c-1.06-2.57-1.38-6.92,2.19-7.6l.17,0a4.15,4.15,0,0,1-.08,2.47c-.18.65-.75,1-1,1.46a13.86,13.86,0,0,0-1,3.69l0,.13-.18,0,0-.13Z"/><path class="cls-5" d="M86.48,86c-1.33-3.13-1.54-8.09,2.41-9.38l0,0,0,.16a5.48,5.48,0,0,1-.2,2.67c-.21.78-.83,1.28-1.13,1.93A8.38,8.38,0,0,0,87,83.49c-.16.82-.2,1.69-.29,2.56-.2,0-.16.09-.23-.09Z"/><path class="cls-5" d="M91.94,77c-1.47-3.06-2-7.92,1.72-9.62l0,0,0,.15a5.32,5.32,0,0,1,.08,2.7,10.07,10.07,0,0,1-1,2.07,9.36,9.36,0,0,0-.53,2.19,23.72,23.72,0,0,0-.14,2.57c-.21,0-.17.09-.24-.08Z"/><path class="cls-5" d="M96.51,65.07a7.18,7.18,0,0,1-1.78-3.51A2.84,2.84,0,0,1,96,57.91l.14-.09a3.7,3.7,0,0,1,1,2.06c.12.59-.26,1.08-.35,1.62a11.16,11.16,0,0,0,0,3.46v.14c-.17.06-.12.11-.24,0Z"/><path class="cls-5" d="M98.36,56.07a4.47,4.47,0,0,1-2.49-2.5c-.2-.63-.53-1.15-.36-1.66a3.21,3.21,0,0,1,1.16-1.67A2.88,2.88,0,0,1,98,51.83c.2.51-.13,1-.17,1.41A6,6,0,0,0,98.59,56c-.13.1-.07.13-.23,0Z"/><path class="cls-5" d="M98.6,55.91a3.59,3.59,0,0,0,1-2.37c0-.43-.24-1,.06-1.52a2.66,2.66,0,0,1,1.64-1.25,3.52,3.52,0,0,1,.8,1.81c.07.49-.32.88-.55,1.42a3.75,3.75,0,0,1-2.9,2.15c-.09-.14-.11-.09,0-.24Z"/><path class="cls-5" d="M97,65a5.61,5.61,0,0,0,1.43-2.8c.11-.5,0-1.17.37-1.67a3.05,3.05,0,0,1,1.88-1.24c.75,1.61.64,2.42-.41,3.7A5,5,0,0,1,97,65.19c-.09-.15-.13-.09,0-.24Z"/><path class="cls-5" d="M92.41,77.05c1.07-.86,2.3-1.7,2.79-3,.24-.57.2-1.34.64-1.93a4.68,4.68,0,0,1,1.86-1.65s.17-.09.17-.07a4.5,4.5,0,0,1,.29,2.66,6.15,6.15,0,0,1-3.38,3.59,13.11,13.11,0,0,1-2.39.61c-.07-.19-.13-.13,0-.25Z"/><path class="cls-5" d="M87,86.12a6.74,6.74,0,0,0,3.44-1.83c.85-1.32,1.18-2.07,3.26-2.59,0,0,.18,0,.18,0l0,.17a4,4,0,0,1-.37,2.44,5.81,5.81,0,0,1-4.25,2.33,9.4,9.4,0,0,1-2.4-.27c0-.2-.06-.17.12-.22Z"/><path class="cls-5" d="M81.39,92.73a5.24,5.24,0,0,0,3-.73c.39-.26.6-.8,1.15-1a3.72,3.72,0,0,1,2-.16l.16,0v.16a2.67,2.67,0,0,1-2.62,2.8,4.8,4.8,0,0,1-3.85-.9l-.11-.07c.06-.17,0-.16.18-.17Z"/><path class="cls-5" d="M73.87,98.92a11.46,11.46,0,0,0,4-.42c.61-.18,1.15-.64,1.83-.64a4.7,4.7,0,0,1,2.45.55,3.55,3.55,0,0,1-4.05,2.08,8,8,0,0,1-4.27-1.33l-.11-.07,0-.17Z"/><path class="cls-5" d="M66.6,102.59a5.85,5.85,0,0,0,3.84.29,5.92,5.92,0,0,1,2-.54,3.7,3.7,0,0,1,2.31.81l.14.11h0l-.12.13a4,4,0,0,1-4.15,1.48,5.78,5.78,0,0,1-2.36-.61,6,6,0,0,1-1.85-1.59c.13-.14.06-.16.23-.09Z"/><path class="cls-5" d="M59.86,104.53a8.87,8.87,0,0,0,3.39,1.15c.51,0,1-.31,1.66-.13a3.88,3.88,0,0,1,2,1l.12.13-.11.12c-2.31,2.76-5.85.28-7.19-2.13l-.07-.11c.13-.13.07-.16.24-.08Z"/><path class="cls-5" d="M54.12,105.2a4.22,4.22,0,0,0,2.52,1.58c.44.06,1-.19,1.54.1a3,3,0,0,1,1.5,1.48l.06.15-.13.09a2.74,2.74,0,0,1-3.68,0,4.15,4.15,0,0,1-2-3.34v-.13c.16-.06.11-.11.24,0Z"/><path class="cls-4" d="M53.25,105.09A15.78,15.78,0,0,0,46,112.61"/><path class="cls-3" d="M64.59,50.13H65c-.37-5.55,2.71-10.35,6.44-10.39S78.31,44.45,78,50l.49.07a9.87,9.87,0,0,1-.4,5.32,9.36,9.36,0,0,1-1,1.93c-.24,4.21-2.63,7.5-5.45,7.69-3,.2-5.73-3.19-6-7.69A9.1,9.1,0,0,1,65,55.9,12.76,12.76,0,0,1,64.59,50.13Z"/><path class="cls-3" d="M55,95.15c-.38-6.5-1.19-23,.41-25.65.11-.19.23-.36.23-.36,1.17-1.65,2.81-2.29,5.31-3.23l4.83-1.8.95-.93A5.13,5.13,0,0,0,76.4,63l.44.94,4.29,1.8c1.8.77,3.58,1.53,5.34,2.31A35,35,0,0,1,55,95.15Z"/><path class="cls-1" d="M65.76,66.55a26.78,26.78,0,0,0,1.43,7.18,20.54,20.54,0,0,0,3,5.77l.44-8.72L70,69l-.63,2.43a10.57,10.57,0,0,1-2-2A14.16,14.16,0,0,1,65.76,66.55Z"/><path class="cls-1" d="M71.35,66.34c-.23.51-.45,1-.68,1.54h1.52Z"/><path class="cls-1" d="M77.11,66.55a27.6,27.6,0,0,1-1.43,7.18,21.07,21.07,0,0,1-3,5.77l-.45-8.72L72.91,69l.62,2.43a10.28,10.28,0,0,0,2-2A14.68,14.68,0,0,0,77.11,66.55Z"/><path class="cls-2" d="M31.88,63.61c2.49-.31,3.7-2.88,3.93-3.37a6.33,6.33,0,0,0,.56-2V49.84c-.18-.51-.37-1-.56-1.54a5.28,5.28,0,0,0-3.37-1.55,5.66,5.66,0,0,0-5.2,3.37,15.6,15.6,0,0,0-.84,2.81,14.08,14.08,0,0,0-.14,4.64c.28,1.83.52,3.39,1.83,4.63A5,5,0,0,0,31.88,63.61Z"/><path class="cls-2" d="M16.85,70.13A13.87,13.87,0,0,0,20.22,65c.77-2.15.57-3.51.73-7.44.23-5.43.34-8.15,1-10,.48-1.38,2-5.69,5.8-7.3a9.47,9.47,0,0,1,11.5,4.25c.63,1.24.62,3.7.6,8.63,0,4.1,0,6.19-1.09,7.83a8.7,8.7,0,0,0-1.45,2.92,8,8,0,0,0-.12,3.19A3.62,3.62,0,0,1,36,65.71a3.89,3.89,0,0,1-.28-2.53,7.74,7.74,0,0,1,1.13-2.35A7.21,7.21,0,0,0,37.52,57V48.75a6.94,6.94,0,0,0-4.84-3.19c-3.81-.37-6.12,3.44-6.29,3.72a10.62,10.62,0,0,0-1.21,4.38,15.58,15.58,0,0,0,.25,4.91c.5,2.32,1,3.77,1,3.77a5,5,0,0,1,.42,2,4.7,4.7,0,0,1-1,2.53,7.5,7.5,0,0,1-2.39,2.1A11,11,0,0,1,16.85,70.13Z"/><path class="cls-2" d="M16.85,71.66a12.08,12.08,0,0,0,2.29.06,12.37,12.37,0,0,0,6.17-2.26,8.54,8.54,0,0,0,1.93,1.33,7.93,7.93,0,0,0,2.66.79c.41-1.1.81-2.21,1.21-3.31l1.21,3.18a4.67,4.67,0,0,0,3.27-.93,5.45,5.45,0,0,0,1.93-2.92,6.79,6.79,0,0,0,1.7.8,8.19,8.19,0,0,0,2.78.26h0c1.6,0,4.2,1.61,4.64,2,1.73,1.47,2.12,11.3,1,24.51a35.71,35.71,0,0,1-14-4.09C22.62,85.12,18.15,75,16.85,71.66Z"/><path class="cls-2" d="M28.09,64l-.24,2.39A5.68,5.68,0,0,0,35,66.27c0-.49-.1-1-.12-1.59s0-1.1,0-1.59a5.73,5.73,0,0,1-3.75,1.72A5.5,5.5,0,0,1,28.09,64Z"/><path class="cls-1" d="M36.37,47.88l1.91-3.25q-.54,2.82-1.06,5.63Z"/><path class="cls-1" d="M128.75,22.75h2.89l2.54,7c.32.92.61,1.88.92,2.83h.09c.32-.95.59-1.91.91-2.83l2.49-7h2.89V37.14h-2.35V30.56c0-1.33.21-3.25.33-4.58h-.09l-1.16,3.34-2.37,6.47h-1.51L132,29.32,130.81,26h-.09c.12,1.33.33,3.25.33,4.58v6.58h-2.3Z"/><path class="cls-1" d="M145,34.23c0-2.31,1.92-3.52,6.35-4,0-1.16-.5-2.13-2-2.13a6,6,0,0,0-3,1.06l-.93-1.69a8.5,8.5,0,0,1,4.44-1.41c2.7,0,4,1.66,4,4.67v6.4h-2.08l-.19-1.2h-.07a5.22,5.22,0,0,1-3.36,1.46A3,3,0,0,1,145,34.23Zm6.35,0V31.81c-2.93.37-3.9,1.14-3.9,2.23s.65,1.37,1.55,1.37A3.4,3.4,0,0,0,151.35,34.24Z"/><path class="cls-1" d="M157.59,21.6h2.54v4L160,27.7a5,5,0,0,1,3.46-1.63c2.31,0,3.33,1.56,3.33,4.29v6.78h-2.54V30.69c0-1.78-.51-2.45-1.68-2.45a3.38,3.38,0,0,0-2.46,1.35v7.55h-2.54Z"/><path class="cls-1" d="M170,34.23c0-2.31,1.92-3.52,6.35-4,0-1.16-.5-2.13-2-2.13a6,6,0,0,0-3,1.06l-.93-1.69a8.5,8.5,0,0,1,4.43-1.41c2.71,0,4,1.66,4,4.67v6.4h-2.08l-.19-1.2h-.07a5.22,5.22,0,0,1-3.36,1.46A3,3,0,0,1,170,34.23Zm6.35,0V31.81c-2.93.37-3.91,1.14-3.91,2.23s.65,1.37,1.56,1.37A3.4,3.4,0,0,0,176.3,34.24Z"/><path class="cls-1" d="M182.54,26.33h2.08l.19,1.93h.07A3.68,3.68,0,0,1,188,26.07a2.79,2.79,0,0,1,1.23.22l-.44,2.2a3.54,3.54,0,0,0-1.11-.18c-.87,0-1.9.59-2.56,2.24v6.59h-2.53Z"/><path class="cls-1" d="M190.25,34.23c0-2.31,1.92-3.52,6.36-4,0-1.16-.5-2.13-2-2.13a6,6,0,0,0-3,1.06l-.94-1.69a8.5,8.5,0,0,1,4.44-1.41c2.7,0,4,1.66,4,4.67v6.4h-2.08l-.19-1.2h-.07a5.22,5.22,0,0,1-3.35,1.46A3,3,0,0,1,190.25,34.23Zm6.36,0V31.81c-2.93.37-3.91,1.14-3.91,2.23s.65,1.37,1.56,1.37A3.4,3.4,0,0,0,196.61,34.24Z"/><path class="cls-1" d="M200.23,41.39l.47-1.89a3.13,3.13,0,0,0,.93.17c1,0,1.24-.67,1.24-1.93V26.33h2.54V37.69c0,2.29-.87,4-3.43,4A4.75,4.75,0,0,1,200.23,41.39ZM202.58,23a1.57,1.57,0,1,1,1.57,1.44A1.45,1.45,0,0,1,202.58,23Z"/><path class="cls-1" d="M208.71,34.23c0-2.31,1.92-3.52,6.35-4,0-1.16-.5-2.13-2-2.13a6,6,0,0,0-3,1.06l-.93-1.69a8.5,8.5,0,0,1,4.44-1.41c2.7,0,4,1.66,4,4.67v6.4h-2.08l-.19-1.2h-.07a5.22,5.22,0,0,1-3.36,1.46A3,3,0,0,1,208.71,34.23Zm6.35,0V31.81c-2.93.37-3.9,1.14-3.9,2.23s.65,1.37,1.55,1.37A3.4,3.4,0,0,0,215.06,34.24Z"/><path class="cls-1" d="M225.6,35.3l1.48-1.76a5.64,5.64,0,0,0,3.75,1.65c1.62,0,2.51-.74,2.51-1.86s-.93-1.56-2.23-2.12l-2-.85a4.12,4.12,0,0,1-2.91-3.82c0-2.29,2-4.06,4.83-4.06a6.33,6.33,0,0,1,4.44,1.84l-1.31,1.62a4.66,4.66,0,0,0-3.13-1.24c-1.36,0-2.25.64-2.25,1.69s1.1,1.55,2.29,2l1.94.81C234.75,30,236,31,236,33.13c0,2.33-1.94,4.27-5.17,4.27A7.41,7.41,0,0,1,225.6,35.3Z"/><path class="cls-1" d="M238.89,33.11V26.33h2.53v6.45c0,1.78.51,2.45,1.68,2.45,1,0,1.58-.44,2.4-1.5v-7.4H248V37.14H246l-.2-1.59h-.07a4.41,4.41,0,0,1-3.47,1.85C239.9,37.4,238.89,35.84,238.89,33.11Z"/><path class="cls-1" d="M251.9,26.33H254l.2,1.93h.07a3.68,3.68,0,0,1,3.07-2.19,2.74,2.74,0,0,1,1.22.22l-.44,2.2a3.54,3.54,0,0,0-1.11-.18c-.86,0-1.9.59-2.55,2.24v6.59H251.9Z"/><path class="cls-1" d="M259.62,34.23c0-2.31,1.92-3.52,6.35-4,0-1.16-.5-2.13-2-2.13a6,6,0,0,0-3,1.06L260,27.48a8.5,8.5,0,0,1,4.44-1.41c2.7,0,4,1.66,4,4.67v6.4h-2.08l-.19-1.2h-.07a5.22,5.22,0,0,1-3.36,1.46A3,3,0,0,1,259.62,34.23Zm6.35,0V31.81c-2.93.37-3.91,1.14-3.91,2.23s.66,1.37,1.56,1.37A3.4,3.4,0,0,0,266,34.24Z"/><path class="cls-1" d="M269.6,41.39l.46-1.89a3.14,3.14,0,0,0,.94.17c1,0,1.24-.67,1.24-1.93V26.33h2.53V37.69c0,2.29-.86,4-3.42,4A4.71,4.71,0,0,1,269.6,41.39ZM272,23a1.57,1.57,0,0,1,3.13,0A1.57,1.57,0,0,1,272,23Z"/><path class="cls-1" d="M278.66,26.33h2.07l.2,1.48H281a4.62,4.62,0,0,1,3.31-1.74,2.92,2.92,0,0,1,3,1.93,4.87,4.87,0,0,1,3.48-1.93c2.27,0,3.33,1.56,3.33,4.29v6.78h-2.53V30.69c0-1.78-.53-2.45-1.67-2.45a3.34,3.34,0,0,0-2.26,1.35v7.55h-2.53V30.69c0-1.78-.53-2.45-1.67-2.45a3.36,3.36,0,0,0-2.26,1.35v7.55h-2.53Z"/><path class="cls-1" d="M297.28,34.23c0-2.31,1.92-3.52,6.35-4,0-1.16-.5-2.13-2-2.13a6,6,0,0,0-3,1.06l-.94-1.69a8.5,8.5,0,0,1,4.44-1.41c2.7,0,4,1.66,4,4.67v6.4h-2.08l-.19-1.2h-.07a5.22,5.22,0,0,1-3.35,1.46A3,3,0,0,1,297.28,34.23Zm6.35,0V31.81c-2.93.37-3.9,1.14-3.9,2.23s.65,1.37,1.56,1.37A3.38,3.38,0,0,0,303.63,34.24Z"/><path class="cls-1" d="M309.87,34.36V21.6h2.54V34.49c0,.62.28.85.54.85a1.31,1.31,0,0,0,.4-.05l.32,1.89a3.43,3.43,0,0,1-1.34.22C310.53,37.4,309.87,36.24,309.87,34.36Z"/><path class="cls-1" d="M321.78,22.75h2.55V37.14h-2.55Z"/><path class="cls-1" d="M328.42,26.33h2.08l.19,1.46h.07a5.06,5.06,0,0,1,3.55-1.72c2.31,0,3.32,1.56,3.32,4.29v6.78H335.1V30.69c0-1.78-.51-2.45-1.68-2.45A3.42,3.42,0,0,0,331,29.59v7.55h-2.53Z"/><path class="cls-1" d="M340.33,35.9l1.17-1.61a4.76,4.76,0,0,0,3,1.2c1.18,0,1.73-.55,1.73-1.29,0-.91-1.17-1.31-2.32-1.75-1.42-.53-3-1.35-3-3.15s1.52-3.23,3.94-3.23a5.84,5.84,0,0,1,3.59,1.29l-1.16,1.56a4,4,0,0,0-2.37-.94c-1.09,0-1.6.52-1.6,1.19,0,.86,1.09,1.18,2.26,1.61,1.46.55,3.1,1.25,3.1,3.27,0,1.86-1.47,3.35-4.2,3.35A6.74,6.74,0,0,1,340.33,35.9Z"/><path class="cls-1" d="M351.48,33.5V28.35h-1.54v-1.9l1.67-.12.3-2.95H354v2.95h2.76v2H354v5.14c0,1.27.5,1.9,1.54,1.9a3.16,3.16,0,0,0,1.12-.25L357.1,37a7.12,7.12,0,0,1-2.21.39C352.4,37.4,351.48,35.83,351.48,33.5Z"/><path class="cls-1" d="M359.41,23A1.58,1.58,0,1,1,361,24.44,1.45,1.45,0,0,1,359.41,23Zm.29,3.33h2.54V37.14H359.7Z"/><path class="cls-1" d="M366.51,33.5V28.35H365v-1.9l1.67-.12.3-2.95H369v2.95h2.75v2H369v5.14c0,1.27.49,1.9,1.53,1.9a3.27,3.27,0,0,0,1.13-.25l.43,1.87a7.12,7.12,0,0,1-2.21.39C367.43,37.4,366.51,35.83,366.51,33.5Z"/><path class="cls-1" d="M374.61,33.11V26.33h2.53v6.45c0,1.78.51,2.45,1.68,2.45.95,0,1.58-.44,2.39-1.5v-7.4h2.54V37.14h-2.08l-.19-1.59h-.07a4.41,4.41,0,0,1-3.48,1.85C375.62,37.4,374.61,35.84,374.61,33.11Z"/><path class="cls-1" d="M388,33.5V28.35h-1.54v-1.9l1.67-.12.3-2.95h2.1v2.95h2.76v2h-2.76v5.14c0,1.27.5,1.9,1.54,1.9a3.26,3.26,0,0,0,1.12-.25l.43,1.87a7.12,7.12,0,0,1-2.21.39C388.92,37.4,388,35.83,388,33.5Z"/><path class="cls-1" d="M395.16,31.74c0-3.51,2.44-5.67,5-5.67,2.92,0,4.46,2.11,4.46,5.13a6.31,6.31,0,0,1-.11,1.23h-6.86a3.07,3.07,0,0,0,3.19,3,4.67,4.67,0,0,0,2.51-.78l.86,1.57a6.67,6.67,0,0,1-3.71,1.17C397.5,37.4,395.16,35.31,395.16,31.74Zm7.25-1c0-1.67-.74-2.68-2.22-2.68a2.71,2.71,0,0,0-2.59,2.68Z"/><path class="cls-1" d="M412,31.74c0-3.6,2.45-5.67,5.14-5.67s5.14,2.07,5.14,5.67-2.45,5.66-5.14,5.66S412,35.33,412,31.74Zm7.68,0c0-2.16-.95-3.6-2.54-3.6s-2.53,1.44-2.53,3.6.95,3.6,2.53,3.6S419.71,33.91,419.71,31.74Z"/><path class="cls-1" d="M424.37,26.45l1.59-.12h4.51v2h-6.1Zm1.46-1.24c0-2.24,1-3.88,3.58-3.88a5.61,5.61,0,0,1,2,.38l-.49,1.89a3.12,3.12,0,0,0-1.17-.25c-.89,0-1.37.57-1.37,1.82v12h-2.53Z"/><path class="cls-1" d="M441.21,24.9h-4.15V22.75h10.86V24.9h-4.16V37.14h-2.55Z"/><path class="cls-1" d="M448.48,31.74c0-3.51,2.44-5.67,5-5.67,2.92,0,4.46,2.11,4.46,5.13a6.31,6.31,0,0,1-.11,1.23H451a3.07,3.07,0,0,0,3.18,3,4.62,4.62,0,0,0,2.51-.78l.86,1.57a6.64,6.64,0,0,1-3.7,1.17C450.83,37.4,448.48,35.31,448.48,31.74Zm7.26-1c0-1.67-.74-2.68-2.22-2.68a2.71,2.71,0,0,0-2.59,2.68Z"/><path class="cls-1" d="M460.3,31.74a5.33,5.33,0,0,1,5.42-5.67,4.65,4.65,0,0,1,3.16,1.21l-1.23,1.65a2.66,2.66,0,0,0-1.8-.79c-1.74,0-3,1.44-3,3.6s1.19,3.6,2.87,3.6A3.57,3.57,0,0,0,468,34.4l1,1.67a5.33,5.33,0,0,1-3.53,1.33C462.56,37.4,460.3,35.33,460.3,31.74Z"/><path class="cls-1" d="M471.83,21.6h2.54v4l-.11,2.08a5,5,0,0,1,3.46-1.63c2.32,0,3.33,1.56,3.33,4.29v6.78h-2.53V30.69c0-1.78-.52-2.45-1.69-2.45a3.4,3.4,0,0,0-2.46,1.35v7.55h-2.54Z"/><path class="cls-1" d="M484.77,26.33h2.08l.19,1.46h.07a5.06,5.06,0,0,1,3.55-1.72c2.31,0,3.33,1.56,3.33,4.29v6.78h-2.54V30.69c0-1.78-.51-2.45-1.68-2.45a3.4,3.4,0,0,0-2.46,1.35v7.55h-2.54Z"/><path class="cls-1" d="M497,31.74c0-3.6,2.45-5.67,5.14-5.67s5.14,2.07,5.14,5.67-2.45,5.66-5.14,5.66S497,35.33,497,31.74Zm7.67,0c0-2.16-.95-3.6-2.53-3.6s-2.54,1.44-2.54,3.6.95,3.6,2.54,3.6S504.71,33.91,504.71,31.74Z"/><path class="cls-1" d="M510.36,34.36V21.6h2.53V34.49c0,.62.28.85.55.85a1.28,1.28,0,0,0,.39-.05l.32,1.89a3.43,3.43,0,0,1-1.34.22C511,37.4,510.36,36.24,510.36,34.36Z"/><path class="cls-1" d="M516.27,31.74c0-3.6,2.44-5.67,5.14-5.67s5.14,2.07,5.14,5.67-2.45,5.66-5.14,5.66S516.27,35.33,516.27,31.74Zm7.67,0c0-2.16-1-3.6-2.53-3.6s-2.54,1.44-2.54,3.6,1,3.6,2.54,3.6S523.94,33.91,523.94,31.74Z"/><path class="cls-1" d="M529,39.1a2.74,2.74,0,0,1,1.56-2.3v-.09a2.05,2.05,0,0,1-1-1.81,2.6,2.6,0,0,1,1.2-2V32.8A3.6,3.6,0,0,1,529.33,30c0-2.48,2-3.88,4.27-3.88a4.79,4.79,0,0,1,1.6.26h3.86v1.89h-2a2.83,2.83,0,0,1,.62,1.81c0,2.4-1.82,3.69-4.11,3.69a4.08,4.08,0,0,1-1.46-.29,1.23,1.23,0,0,0-.53,1c0,.61.44,1,1.75,1h1.92c2.59,0,4,.8,4,2.67,0,2.13-2.24,3.81-5.76,3.81C530.9,41.92,529,41,529,39.1Zm7.81-.58c0-.83-.67-1.08-1.9-1.08h-1.48a5.73,5.73,0,0,1-1.47-.15,1.78,1.78,0,0,0-.83,1.42c0,1,1,1.56,2.75,1.56S536.79,39.45,536.79,38.52ZM535.47,30a1.89,1.89,0,1,0-3.75,0,1.9,1.9,0,1,0,3.75,0Z"/><path class="cls-1" d="M541.34,41.36l.47-2a3,3,0,0,0,.77.15,2.28,2.28,0,0,0,2.16-1.85l.2-.68-4.25-10.68h2.57l1.87,5.3c.32,1,.63,2,1,3.05h.08c.28-1,.55-2.06.83-3.05l1.61-5.3h2.45l-3.91,11.3c-.9,2.44-2,3.95-4.39,3.95A4.3,4.3,0,0,1,541.34,41.36Z"/><path class="cls-1" d="M142.05,51.81l9.18,29.33h-7.39l-1.8-6h-9.49l-1.83,6h-6l9.4-29.33ZM134.2,69.69h6.22L137.34,59.4Z"/><path class="cls-1" d="M161.34,75.34H173v5.8H154.38V51.81h7Z"/><path class="cls-1" d="M199.35,51.81V70.08a16.34,16.34,0,0,1-1,6.58,7.83,7.83,0,0,1-3.73,3.55,18.52,18.52,0,0,1-13.68.14,8.39,8.39,0,0,1-3.75-3.55,14.42,14.42,0,0,1-1.25-6.72V51.81h7.46V70.08a11.06,11.06,0,0,0,.4,3.48,3.26,3.26,0,0,0,1.58,1.77,6,6,0,0,0,2.94.65,6.71,6.71,0,0,0,3.15-.64,3.28,3.28,0,0,0,1.61-1.71,11.38,11.38,0,0,0,.39-3.55V51.81Z"/><path class="cls-1" d="M217.8,81.14l-7.23-23.91V81.14h-5.76V51.81H215.5l5.15,17.56,5.42-17.56H236.8V81.14h-6.92V57.23L222.5,81.14Z"/><path class="cls-1" d="M265.2,51.81V81.14h-5.86L247.86,61.33c0,.5,0,.83,0,1,.05.5.08.92.08,1.27V81.14h-5.35V51.81h7.41l10,17.3c-.08-.86-.13-1.51-.13-2V51.81Z"/><path class="cls-1" d="M277.94,51.81V81.14h-6.85V51.81Z"/><path class="cls-1" d="M309.24,51.81l9.18,29.33H311l-1.8-6h-9.48l-1.84,6h-6l9.4-29.33Zm-7.85,17.88h6.22L304.53,59.4Z"/><path class="cls-1" d="M341.83,58.26l-5.84,2a4.78,4.78,0,0,0-5-3.48q-4.08,0-4.08,2.65a2.38,2.38,0,0,0,.77,1.78,7.55,7.55,0,0,0,3.44,1.27,33.67,33.67,0,0,1,6.57,1.83,8.34,8.34,0,0,1,3.5,3,7.88,7.88,0,0,1,1.43,4.59,9.14,9.14,0,0,1-3.06,6.87q-3.06,2.9-9.07,2.9a13.79,13.79,0,0,1-7.67-2,9.8,9.8,0,0,1-4.18-6.09L325,72c.72,2.74,2.7,4.1,6,4.1a5.61,5.61,0,0,0,3.52-.91A2.72,2.72,0,0,0,335.65,73a2.27,2.27,0,0,0-1-2,12.67,12.67,0,0,0-4.06-1.33c-3.73-.78-6.39-1.83-8-3.17a7.25,7.25,0,0,1-2.38-5.88A8.73,8.73,0,0,1,323,54.05a10.8,10.8,0,0,1,7.72-2.69Q339.37,51.36,341.83,58.26Z"/><path class="cls-1" d="M367.38,58.26l-5.84,2a4.8,4.8,0,0,0-5-3.48q-4.07,0-4.07,2.65a2.37,2.37,0,0,0,.76,1.78,7.66,7.66,0,0,0,3.44,1.27,33.67,33.67,0,0,1,6.57,1.83,8.31,8.31,0,0,1,3.51,3,7.87,7.87,0,0,1,1.42,4.59,9.13,9.13,0,0,1-3.05,6.87c-2,1.93-5.07,2.9-9.07,2.9a13.8,13.8,0,0,1-7.68-2,9.75,9.75,0,0,1-4.17-6.09L350.56,72c.71,2.74,2.7,4.1,6,4.1A5.6,5.6,0,0,0,360,75.2,2.7,2.7,0,0,0,361.19,73a2.27,2.27,0,0,0-1.05-2,12.59,12.59,0,0,0-4.05-1.33c-3.74-.78-6.4-1.83-8-3.17a7.26,7.26,0,0,1-2.39-5.88,8.71,8.71,0,0,1,2.85-6.59,10.77,10.77,0,0,1,7.71-2.69Q364.92,51.36,367.38,58.26Z"/><path class="cls-1" d="M383.68,81.59a10.67,10.67,0,0,1-9.17-4.45,17.76,17.76,0,0,1-3.24-10.76,17.13,17.13,0,0,1,3.28-10.72,11.1,11.1,0,0,1,9.36-4.3q6.13,0,9.26,4.59a18.16,18.16,0,0,1,3.13,10.49,17.73,17.73,0,0,1-3.22,10.77Q389.86,81.59,383.68,81.59ZM383.87,57q-5.4,0-5.4,9.5t5.4,9.51q5.24,0,5.23-9.49T383.87,57Z"/><path class="cls-1" d="M424.44,62.73l-7.19.45C417.14,59,415.53,57,412.4,57Q407,57,407,66.53,407,72,408.48,74a4.81,4.81,0,0,0,4.09,2c2.84,0,4.58-1.84,5.21-5.54l6.66.41a11.78,11.78,0,0,1-3.92,8,12.06,12.06,0,0,1-8,2.74,12.19,12.19,0,0,1-9.47-4c-2.42-2.67-3.64-6.38-3.64-11.1a16.41,16.41,0,0,1,3.53-10.87,11.81,11.81,0,0,1,9.62-4.24Q423.11,51.36,424.44,62.73Z"/><path class="cls-1" d="M435.25,51.81V81.14H428.4V51.81Z"/><path class="cls-1" d="M455.55,51.81l9.18,29.33h-7.39l-1.8-6h-9.49l-1.83,6h-6l9.4-29.33ZM447.7,69.69h6.22L450.84,59.4Z"/><path class="cls-1" d="M484.23,51.81v5.8H477V81.14h-7V57.61h-7.3v-5.8Z"/><path class="cls-1" d="M494,51.81V81.14h-6.85V51.81Z"/><path class="cls-1" d="M510.93,81.59a10.67,10.67,0,0,1-9.17-4.45,17.76,17.76,0,0,1-3.24-10.76,17.19,17.19,0,0,1,3.28-10.72,11.1,11.1,0,0,1,9.36-4.3c4.1,0,7.18,1.53,9.27,4.59a18.23,18.23,0,0,1,3.12,10.49,17.66,17.66,0,0,1-3.22,10.77Q517.1,81.59,510.93,81.59ZM511.12,57q-5.4,0-5.4,9.5t5.4,9.51q5.24,0,5.23-9.49T511.12,57Z"/><path class="cls-1" d="M550.6,51.81V81.14h-5.86L533.26,61.33c0,.5,0,.83,0,1a10.89,10.89,0,0,1,.09,1.27V81.14H528V51.81h7.4l10,17.3c-.09-.86-.13-1.51-.13-2V51.81Z"/></g></g></svg>